<svg width="561" height="279" viewBox="0 0 561 279" fill="none" xmlns="http://www.w3.org/2000/svg">
<path fill-rule="evenodd" clip-rule="evenodd" d="M106.546 2.808C108.37 5.897 114.713 11.018 118.356 12.343C121.24 13.393 119.608 17.745 114.293 23.178L109.717 27.856L113.437 28.554C116.194 29.071 117.418 29.932 118.164 31.876C120.672 38.416 123.565 43.297 126.291 45.592C127.919 46.961 129.082 48.191 128.876 48.324C112.397 58.949 104.967 65.318 98.5 74.363C96.3 77.439 94.162 79.967 93.75 79.978C93.338 79.99 93 71.45 93 61V42H53H13V81.988V121.976L50.25 122.238L87.5 122.5L81.306 124.783C65.855 130.479 53.927 144.908 43.928 170C41.626 175.775 39.667 180.597 39.573 180.715C39.48 180.833 36.5 179.732 32.952 178.266C27.755 176.121 24.847 175.593 18 175.551C10.186 175.504 -0.0560329 177.402 0.0409671 178.88C0.0749671 179.409 41.575 212.106 46.875 215.779C48.571 216.955 48.942 216.431 51.478 209.279C57.603 192.001 66.185 178.015 77.163 167.418C85.559 159.315 91.239 155.728 100.781 152.504L107.5 150.233L110.163 156.061C113.86 164.15 117.44 168.361 125 173.507C132.986 178.943 146.092 183.433 160.463 185.656C169.498 187.054 170.993 187.542 170.399 188.901C170.014 189.78 168.994 193.066 168.133 196.203C166.83 200.951 166.766 202.853 167.754 207.565C168.888 212.971 173.3 222.013 174.792 221.989C175.181 221.982 181.906 210.17 189.735 195.739L203.97 169.5L193.543 168.786C163.205 166.709 141.204 153.895 135.605 135.04C133.305 127.298 133.505 111.241 136.057 98.718C138.353 87.455 144.419 68.554 149.094 58.099C151.719 52.227 152.746 50.967 156.163 49.426C163.971 45.906 171 34.807 171 26C171 20.502 167.866 12.81 163.852 8.455C158.208 2.333 152.911 0 144.652 0C137.39 0 132.581 1.557 127.228 5.64L123.848 8.218L115.674 4.507C103.807 -0.879996 104.437 -0.762001 106.546 2.808ZM122.95 20.56C120.871 23.066 122.899 27.426 126.329 27.822C127.865 27.999 129.769 27.607 130.56 26.95C132.31 25.498 132.44 21.84 130.8 20.2C129.1 18.5 124.484 18.712 122.95 20.56ZM176.942 64.007C158.856 67.071 149.632 80.198 154.11 96.5C155.581 101.854 162.306 108.266 168.175 109.909C170.655 110.603 178.389 111.952 185.362 112.905C198.992 114.769 202.678 116.396 204.433 121.324C205.011 122.946 205.011 125.365 204.433 127.673C203.243 132.428 199.005 135.01 191.244 135.707C180.447 136.676 172.123 132.48 169.86 124.926L168.683 121H159.796H150.909L151.555 124.75C153.247 134.574 160.761 143.358 170.329 146.696C177.59 149.229 199.333 149.257 206.532 146.742C217.775 142.814 222.941 135.424 222.978 123.218C223.004 114.758 221.587 110.757 216.975 106.267C212.376 101.788 207.668 100.267 191.592 98.062C176.732 96.024 173.374 94.622 171.761 89.782C171.167 88.002 171.372 86.045 172.412 83.557C174.514 78.527 179.183 76.69 188.654 77.168C197.016 77.59 200.436 79.488 203.332 85.315L205.165 89H213.582C221.923 89 222 88.977 222 86.468C222 82.645 219.278 76.896 215.699 73.161C207.858 64.977 192.556 61.363 176.942 64.007ZM333.5 64.42C324.947 66.407 322.152 67.643 316.5 71.941C307.2 79.011 302 91.339 302 106.316C302 120.944 306.116 131.323 315.134 139.431C323.211 146.692 328.991 148.435 345 148.435C356.697 148.435 359.261 148.132 364.202 146.164C380.076 139.84 388.962 123.547 387.743 103C386.601 83.738 378.028 71.399 362.048 66.016C353.946 63.287 341.398 62.585 333.5 64.42ZM425.404 64.087C410.054 66.655 399.458 76.096 394.832 91.326C393.097 97.041 392.831 99.952 393.234 108.84C394.194 130.009 402.5 141.753 420.346 147.174C426.237 148.963 428.955 149.189 439.36 148.755C452.993 148.186 459.897 146.187 466.205 140.985C471.01 137.022 475.939 126.989 476.699 119.628L477.288 113.921L467.909 114.211L458.529 114.5L457.943 118C456.115 128.922 448.991 134 435.5 134C426.733 134 422.782 132.612 418.225 127.932C413.995 123.588 412 116.713 412 106.477C412 92.871 415.51 84.9 423.334 80.739C429.184 77.628 442.673 77.547 448.5 80.587C453.283 83.083 456.805 87.93 457.643 93.171L458.256 97H467.628C478.282 97 477.993 97.319 475.575 88.236C473.982 82.253 470.299 75.535 466.842 72.308C459.122 65.101 440.923 61.49 425.404 64.087ZM226 72.5V80H239.5H253V113.5V147H262H271V113.5V80H285H299V72.5V65H262.5H226V72.5ZM483 106V147H492H501V137.681V128.362L507.963 120.931C512.469 116.123 515.204 113.896 515.713 114.622C516.146 115.239 521.178 122.776 526.895 131.372L537.29 147H548.696H560.101L555.665 140.75C553.226 137.313 545.796 126.685 539.155 117.133L527.081 99.767L543.108 82.383L559.134 65H547.126H535.117L518.948 84C510.055 94.45 502.378 103 501.889 103C501.4 103 501 94.45 501 84V65H492H483V106ZM48.413 78.493C47.414 80.017 47.017 81.93 47.39 83.417L48 85.849L42.375 83.871C35.842 81.576 30.184 81.731 28.606 84.25C27.002 86.812 28.946 89.279 33.608 90.596L37.5 91.696L31.699 92.185C25.561 92.701 22.522 94.59 23.543 97.253C24.233 99.05 28.939 100.967 32.899 101.063C35.258 101.121 35.311 101.203 33.465 101.952C27.148 104.512 28.891 108.807 36.751 110.05C40.315 110.613 43.904 110.396 48.675 109.328C53.456 108.259 61.939 107.748 77 107.625C96.04 107.469 99.222 107.204 104.808 105.311C111.358 103.092 122 97.182 122 95.765C122 95.319 118.326 91.126 113.835 86.448L105.669 77.943L103.085 80.412C96.847 86.37 78.859 92 66.061 92C60.294 92 60.014 91.883 59.474 89.25C57.424 79.264 55.571 76 51.952 76C50.904 76 49.311 77.122 48.413 78.493ZM334.854 79.57C324.978 82.61 320.418 92.465 321.216 109.041C321.789 120.933 324.238 126.806 330.298 130.816C334.061 133.306 335.124 133.5 345 133.5C354.876 133.5 355.939 133.306 359.702 130.816C365.762 126.806 368.211 120.933 368.784 109.041C369.343 97.44 367.497 89.774 362.879 84.515C357.619 78.524 345.308 76.351 334.854 79.57ZM435.5 165.878C414.809 171.311 411.435 198.435 430.247 208.11C446.058 216.243 464.906 205.447 464.978 188.218C465.016 179.13 460.674 171.963 452.622 167.823C448.309 165.605 440.093 164.672 435.5 165.878ZM287 188V210H290H293V201.5V193L302.25 192.996C309.66 192.993 312.137 192.604 314.701 191.04C318.677 188.616 321.005 184.268 320.985 179.3C320.966 174.312 319.233 171.074 315.088 168.28C312.019 166.212 310.554 166 299.352 166H287V188ZM352 188V210H354.96H357.919L358.21 201.75L358.5 193.5L364.642 193.205L370.783 192.91L376.142 201.453C381.317 209.705 381.628 209.997 385.25 209.998C387.313 209.999 389 209.755 389 209.455C389 209.155 386.75 205.575 384 201.5C381.25 197.425 379 193.898 379 193.663C379 193.428 380.763 191.473 382.917 189.318C389.805 182.43 389.039 173.55 381.102 168.263C378.013 166.206 376.535 166 364.852 166H352V188ZM435.5 172.492C423.845 176.584 420.479 191.945 429.501 199.867C442.322 211.124 461.619 200.775 458.528 184.299C457.634 179.534 451.742 173.577 446.477 172.115C441.476 170.727 440.425 170.763 435.5 172.492ZM293 179.5V187H300.918C310.463 187 311.633 186.611 313.616 182.776C314.884 180.323 314.942 179.274 313.942 176.859C312.237 172.743 310.268 172 301.066 172H293V179.5ZM358 179.5V187H367.326C375.781 187 376.854 186.784 378.826 184.686C381.71 181.615 381.597 177.507 378.545 174.455C376.301 172.21 375.316 172 367.045 172H358V179.5ZM22 266C22 273.333 22.278 275 23.5 275C24.656 275 25.006 273.682 25.027 269.25L25.054 263.5L27.777 266.759C31.04 270.665 32.42 270.815 34.592 267.5C37.048 263.752 38 264.451 38 270C38 273.778 38.367 275 39.5 275C40.722 275 41 273.333 41 266C41 255.353 39.832 254.477 35 261.5C33.297 263.975 31.722 266 31.5 266C31.278 266 29.703 263.975 28 261.5C23.168 254.477 22 255.353 22 266ZM46.61 264.728C45.021 269.003 43.511 273.063 43.253 273.75C42.972 274.502 43.625 275 44.893 275C46.099 275 47 274.359 47 273.5C47 272.389 48.167 272 51.5 272C54.833 272 56 272.389 56 273.5C56 274.35 56.896 275 58.067 275C60.44 275 60.382 274.683 56.092 264.195C52.166 254.598 50.339 254.701 46.61 264.728ZM62 266C62 273.196 62.291 275 63.45 275C64.514 275 64.98 273.469 65.2 269.25L65.5 263.5L69.782 269.25C75.934 277.512 77 277.032 77 266C77 257.667 76.852 257 75 257C73.232 257 73 257.667 73 262.75V268.5L68.921 262.75C63.066 254.497 62 254.998 62 266ZM79 258.434C79 259.254 80.176 260.002 81.75 260.184C84.436 260.493 84.507 260.668 84.794 267.75C85.014 273.189 85.44 275 86.5 275C87.56 275 87.986 273.189 88.206 267.75C88.493 260.668 88.564 260.493 91.25 260.184C92.824 260.002 94 259.254 94 258.434C94 257.316 92.346 257 86.5 257C80.654 257 79 257.316 79 258.434ZM96 266V275H102C106.56 275 108 274.654 108 273.557C108 272.575 106.644 272.017 103.75 271.807C100.269 271.556 99.5 271.138 99.5 269.5C99.5 267.905 100.271 267.436 103.312 267.186C108.206 266.783 107.7 264.614 102.612 264.186C99.741 263.945 98.952 263.482 99.197 262.186C99.415 261.034 100.703 260.402 103.258 260.19C105.704 259.987 107 259.381 107 258.44C107 257.361 105.62 257 101.5 257H96V266ZM110 266C110 274.333 110.148 275 112 275C113.768 275 114 274.333 114 269.25V263.5L118.079 269.25C123.934 277.503 125 277.002 125 266C125 258.804 124.709 257 123.55 257C122.486 257 122.02 258.531 121.8 262.75L121.5 268.5L117.218 262.75C111.066 254.488 110 254.968 110 266ZM129 266C129 273.166 129.293 275 130.44 275C131.381 275 131.987 273.703 132.19 271.25C132.484 267.69 132.677 267.5 136 267.5C139.323 267.5 139.516 267.69 139.81 271.25C140.013 273.703 140.619 275 141.56 275C142.707 275 143 273.166 143 266C143 258.667 142.722 257 141.5 257C140.452 257 140 258.056 140 260.5C140 263.917 139.905 264 136 264C132.095 264 132 263.917 132 260.5C132 258.056 131.548 257 130.5 257C129.278 257 129 258.667 129 266ZM151.09 259.25C150.617 260.488 149.053 264.39 147.615 267.922C146.177 271.455 145 274.492 145 274.672C145 275.776 148.89 274.73 149.362 273.5C149.738 272.519 151.296 272 153.862 272C156.427 272 157.985 272.519 158.362 273.5C158.935 274.995 162 275.65 162 274.277C162 273.88 160.537 269.831 158.75 265.281C155.335 256.586 152.855 254.634 151.09 259.25ZM170.455 259.455C167.367 262.542 167.105 268.673 169.912 272.139C171.475 274.07 172.766 274.5 177 274.5C181.234 274.5 182.525 274.07 184.088 272.139C186.895 268.673 186.633 262.542 183.545 259.455C180.134 256.044 173.866 256.044 170.455 259.455ZM193 266C193 274.235 193.165 275 194.937 275C196.391 275 196.951 274.19 197.187 271.75C197.448 269.042 197.959 268.447 200.25 268.184C204.095 267.741 203.88 265 200 265C197.467 265 197 264.611 197 262.5C197 260.31 197.433 260 200.5 260C202.944 260 204 259.548 204 258.5C204 257.348 202.722 257 198.5 257H193V266ZM206 266V275H212C217.333 275 218 274.778 218 273C218 271.333 217.333 271 214 271H210V264C210 257.667 209.81 257 208 257C206.148 257 206 257.667 206 266ZM220 264C220 272.058 221.872 275 227 275C232.128 275 234 272.058 234 264C234 258.444 233.69 257 232.5 257C231.335 257 231 258.325 231 262.929C231 266.985 230.504 269.353 229.429 270.429C225.813 274.044 223 270.762 223 262.929C223 258.325 222.665 257 221.5 257C220.31 257 220 258.444 220 264ZM239.45 261.505L242.09 266.009L238.997 270.505C235.907 274.996 235.906 275 238.236 275C239.793 275 241.189 273.95 242.433 271.844L244.297 268.688L246.899 271.853C248.329 273.594 250.339 275.014 251.365 275.009C253.118 275.001 253.133 274.85 251.615 272.5C246.635 264.792 246.819 265.731 249.519 261.757C252.477 257.404 252.536 257 250.216 257C249.234 257 247.603 258.402 246.59 260.116L244.75 263.232L242.777 260.116C241.644 258.327 239.953 257 238.807 257C236.906 257 236.937 257.217 239.45 261.505ZM258.364 258.17C253.411 260.568 252.66 267.814 256.923 272.077C262.962 278.116 272.455 274.401 272.455 266C272.455 262.633 271.896 261.307 269.672 259.394C266.706 256.843 262.127 256.347 258.364 258.17ZM290.09 259.25C289.617 260.488 288.053 264.39 286.615 267.922C285.177 271.455 284 274.492 284 274.672C284 275.776 287.89 274.73 288.362 273.5C288.738 272.519 290.296 272 292.862 272C295.427 272 296.985 272.519 297.362 273.5C297.935 274.995 301 275.65 301 274.277C301 273.88 299.538 269.831 297.75 265.281C294.335 256.586 291.855 254.634 290.09 259.25ZM303 264C303 269.667 303.381 271.381 305 273C307.393 275.393 311.715 275.588 314.777 273.443C316.736 272.072 317 271.001 317 264.443C317 258.494 316.699 257 315.5 257C314.323 257 314 258.375 314 263.378C314 270.282 312.6 272.643 309.156 271.549C306.863 270.822 306.032 268.23 306.014 261.75C306.003 258.201 305.621 257 304.5 257C303.31 257 303 258.444 303 264ZM321 266C321 273.333 321.278 275 322.5 275C323.658 275 324.003 273.69 324.011 269.25L324.022 263.5L326.584 266.75C329.711 270.718 331.22 270.821 333.885 267.25L335.937 264.5L335.968 269.75C335.996 274.323 336.258 275 338 275C339.852 275 340 274.333 340 266C340 255.336 338.833 254.476 333.964 261.553C330.476 266.622 329.715 266.511 325.931 260.388C322.247 254.427 321 255.846 321 266ZM343 266V275H349C353.667 275 355 274.667 355 273.5C355 272.417 353.889 272 351 272C347.4 272 347 271.75 347 269.5C347 267.31 347.433 267 350.5 267C352.944 267 354 266.548 354 265.5C354 264.452 352.944 264 350.5 264C347.667 264 347 263.619 347 262C347 260.333 347.667 260 351 260C353.889 260 355 259.583 355 258.5C355 257.333 353.667 257 349 257H343V266ZM358 266C358 273.196 358.291 275 359.45 275C360.514 275 360.98 273.469 361.2 269.25L361.5 263.5L365.5 269.238C367.765 272.487 370.259 274.981 371.25 274.988C372.788 274.999 373 273.909 373 266C373 257.743 372.839 257 371.05 257C369.383 257 369.056 257.817 368.8 262.634L368.5 268.268L364.628 262.634C359.053 254.522 358 255.056 358 266ZM375 258.5C375 259.433 375.944 260 377.5 260C379.944 260 380 260.167 380 267.5C380 274.333 380.178 275 382 275C383.822 275 384 274.333 384 267.5V260H387C389 260 390 259.5 390 258.5C390 257.3 388.5 257 382.5 257C376.5 257 375 257.3 375 258.5ZM392 266V275H397.5C401.722 275 403 274.652 403 273.5C403 272.417 401.889 272 399 272C395.4 272 395 271.75 395 269.5C395 267.31 395.433 267 398.5 267C400.944 267 402 266.548 402 265.5C402 264.452 400.944 264 398.5 264C395.667 264 395 263.619 395 262C395 260.333 395.667 260 399 260C401.889 260 403 259.583 403 258.5C403 257.348 401.722 257 397.5 257H392V266ZM412.328 259.394C410.104 261.307 409.545 262.633 409.545 266C409.545 274.401 419.038 278.116 425.077 272.077C433.491 263.663 421.377 251.611 412.328 259.394ZM431.05 258.44C430.393 259.231 430.001 261.144 430.178 262.69C430.445 265.016 431.232 265.731 434.75 266.845C437.792 267.808 439 268.731 439 270.095C439 271.448 438.293 272 436.559 272C435.216 272 433.84 271.55 433.5 271C432.555 269.471 430 269.811 430 271.465C430 274.834 438.553 276.304 441.429 273.429C444.712 270.145 443.116 266.628 437.452 264.667C435.278 263.914 433.5 262.669 433.5 261.899C433.5 260.141 438.019 259.412 439.007 261.011C439.41 261.663 440.486 262.04 441.397 261.848C442.918 261.529 442.924 261.314 441.471 259.25C439.607 256.603 433.001 256.089 431.05 258.44ZM450 266.05V275.1L455.75 274.8C460.061 274.575 461.5 274.125 461.5 273C461.5 271.989 460.279 271.399 457.75 271.19L454 270.879V263.94C454 257.667 453.808 257 452 257C450.147 257 450 257.667 450 266.05ZM463 263.365C463 271.355 465.35 275 470.5 275C475.65 275 478 271.355 478 263.365C478 257.716 477.78 257 476.046 257C474.332 257 474.055 257.819 473.796 263.646C473.578 268.533 473.059 270.568 471.834 271.338C468.719 273.294 467 270.462 467 263.378C467 257.667 466.791 257 465 257C463.209 257 463 257.667 463 263.365ZM482.923 259.923C480.928 261.918 480 263.848 480 266C480 273.574 490.215 277.876 495.545 272.545C498.521 269.57 498.678 268 496 268C494.9 268 494 268.46 494 269.021C494 269.583 492.893 270.547 491.541 271.163C485.998 273.689 481.255 265.794 485.829 261.655C488.115 259.586 489.932 259.564 492.796 261.57C494.029 262.433 495.816 262.985 496.769 262.795C498.251 262.5 498.111 262.059 495.795 259.725C491.998 255.899 486.868 255.978 482.923 259.923ZM501 266C501 273.333 501.278 275 502.5 275C503.5 275 504 274 504 272C504 268.031 506.54 268.028 508.797 271.994C509.881 273.9 511.305 274.99 512.716 274.994L514.933 275L512.937 271.618C511.207 268.686 511.145 268.158 512.471 267.65C513.437 267.279 514 265.784 514 263.588C514 259.179 511.115 257 505.277 257H501V266ZM518.8 260.046C516.168 262.679 515.834 263.596 516.343 266.796C517.108 271.603 520.955 275 525.633 275C530.312 275 535 270.496 535 266C535 261.438 530.316 257 525.5 257C522.761 257 521.083 257.763 518.8 260.046ZM538.05 258.44C537.393 259.231 537.001 261.144 537.178 262.69C537.445 265.016 538.232 265.731 541.75 266.845C544.792 267.808 546 268.731 546 270.095C546 272.236 542.181 272.781 540.306 270.906C539.705 270.305 538.382 269.972 537.368 270.168C535.654 270.498 535.682 270.682 537.761 272.761C541.796 276.796 550 274.829 550 269.826C550 267.853 547.252 265.503 543.563 264.318C541.947 263.799 540.447 262.841 540.229 262.188C539.615 260.345 542.875 259.595 545.469 260.983C549.099 262.926 550.802 261.802 548.188 259.188C545.65 256.65 539.889 256.224 538.05 258.44ZM173 262C171.9 263.1 171 264.9 171 266C171 267.1 171.9 268.9 173 270C174.1 271.1 175.9 272 177 272C178.1 272 179.9 271.1 181 270C182.1 268.9 183 267.1 183 266C183 264.9 182.1 263.1 181 262C179.9 260.9 178.1 260 177 260C175.9 260 174.1 260.9 173 262ZM259.58 261.912C257.114 264.637 257.884 269.093 261.135 270.909C263.495 272.227 264.042 272.202 266.385 270.667C269.764 268.454 269.965 263.789 266.777 261.557C263.823 259.488 261.678 259.593 259.58 261.912ZM415.223 261.557C412.035 263.789 412.236 268.454 415.615 270.667C417.958 272.202 418.505 272.227 420.865 270.909C424.116 269.093 424.886 264.637 422.42 261.912C420.322 259.593 418.177 259.488 415.223 261.557ZM504 263C504 265.674 504.33 266 507.031 266C510.447 266 511.898 263.787 509.989 261.487C509.311 260.669 507.685 260 506.378 260C504.402 260 504 260.508 504 263ZM521.655 261.829C519.121 264.628 519.56 268.666 522.615 270.667C524.958 272.202 525.505 272.227 527.865 270.909C529.54 269.973 530.618 268.414 530.825 266.63C531.461 261.134 525.234 257.873 521.655 261.829ZM50.183 264.498C48.468 268.261 48.695 269 51.567 269C53.767 269 54.036 268.678 53.446 266.75C52.063 262.229 51.419 261.785 50.183 264.498ZM152.124 265.073C150.675 269.232 150.587 269 153.608 269C155.952 269 156.148 268.721 155.538 266.25C154.477 261.954 153.347 261.564 152.124 265.073ZM291.124 265.073C289.675 269.232 289.587 269 292.608 269C294.952 269 295.148 268.721 294.538 266.25C293.477 261.954 292.347 261.564 291.124 265.073ZM274.406 272.152C274.015 272.785 274.465 273.867 275.407 274.556C276.497 275.353 276.734 276.046 276.06 276.463C274.481 277.439 274.778 279.022 276.423 278.391C278.282 277.678 279.195 275.191 278.455 272.859C277.797 270.784 275.499 270.383 274.406 272.152Z" fill="black"/>
</svg>
