<svg width="560" height="223" viewBox="0 0 560 223" fill="none" xmlns="http://www.w3.org/2000/svg">
<path fill-rule="evenodd" clip-rule="evenodd" d="M105.016 1.46711C105.016 3.18811 113.327 10.8231 116.524 12.0391C117.894 12.5601 119.016 13.6051 119.016 14.3611C119.016 15.9911 114.235 22.7131 111.09 25.5071L108.871 27.4771L112.194 28.5861C114.834 29.4671 116.295 31.1111 119.31 36.5981C121.397 40.3951 123.985 44.4381 125.06 45.5831C126.136 46.7281 127.016 47.9571 127.016 48.3131C127.016 48.6701 124.204 50.8481 120.766 53.1531C111.268 59.5231 104.267 65.7591 98.7906 72.7271C96.0636 76.1971 93.4246 79.0361 92.9246 79.0361C92.4126 79.0361 92.0156 70.9641 92.0156 60.5361V42.0361H52.0156H12.0156V82.0361V122.036L44.2656 122.094C62.0036 122.125 78.3156 122.492 80.5156 122.909L84.5156 123.668L81.3146 124.421C76.3896 125.579 67.0716 132.075 61.3736 138.322C55.0476 145.259 49.8866 154.094 43.5766 168.786C40.9196 174.974 38.2436 180.036 37.6306 180.035C37.0176 180.035 34.0726 179.107 31.0876 177.972C25.3856 175.805 13.4026 175.152 5.48359 176.578C-1.65341 177.863 -1.71141 178.359 4.65459 183.646C16.9166 193.829 45.8276 216.036 46.8226 216.036C47.3936 216.036 49.4796 211.857 51.4586 206.75C61.5346 180.746 79.1466 160.296 97.2456 153.588C101.033 152.184 104.667 151.038 105.323 151.04C105.979 151.042 108.032 153.975 109.884 157.558C117.608 172.495 130.803 180.153 157.743 185.335C170.684 187.824 169.638 186.378 166.96 198.074C165.814 203.078 165.9 204.282 167.85 210.574C169.036 214.403 170.838 218.601 171.854 219.903L173.701 222.27L176.691 217.403C181.819 209.057 202.016 171.405 202.016 170.19C202.016 169.481 200.186 169.034 197.266 169.03C190.114 169.021 174.26 166.39 167.741 164.129C152.735 158.926 141.095 149.76 136.263 139.344C133.721 133.863 133.571 132.719 133.607 119.036C133.651 102.491 135.207 94.5421 142.678 72.6941C148.733 54.9871 150.031 52.7271 156.547 48.5601C162.535 44.7291 167.346 38.2361 169.144 31.5621C172.018 20.8871 165.266 7.39011 154.557 2.40311C145.701 -1.72089 134.273 -0.447887 126.426 5.53711L122.841 8.27111L113.928 4.21211C107.957 1.49211 105.016 0.586113 105.016 1.46711ZM122.766 20.1161C120.429 21.4771 120.552 24.3061 123.046 26.5631C127.187 30.3111 133.515 24.7521 129.97 20.4811C128.584 18.8111 125.293 18.6441 122.766 20.1161ZM175.423 64.0041C164.956 66.2401 158.172 70.9741 154.407 78.6701C152.102 83.3811 151.817 84.9701 152.269 90.6011C152.646 95.3021 153.506 98.1791 155.381 101.011C159.642 107.45 164.798 109.732 181.3 112.483C189.318 113.82 197.279 115.638 198.991 116.523C204.473 119.358 205.401 126.868 200.865 131.697C197.723 135.041 189.174 136.692 182.376 135.266C175.274 133.776 171.633 131.056 169.366 125.543L167.516 121.043L158.721 121.04L149.925 121.036L150.591 124.786C152.296 134.386 160.183 143.573 169.407 146.703C176.78 149.205 198.423 149.146 205.926 146.603C213.107 144.169 219.272 138.048 220.848 131.787C224.471 117.399 219.349 105.27 208.092 101.582C205.575 100.758 197.743 99.1661 190.687 98.0441C176.215 95.7441 172.625 94.3111 171.335 90.3161C170.019 86.2421 170.747 83.6681 174.133 80.4241C176.958 77.7181 177.662 77.5371 185.332 77.5501C195.229 77.5671 199.096 79.3131 202.047 85.0961L204.097 89.1161L212.307 88.8261L220.516 88.5361L220.402 84.7911C220.176 77.3131 212.811 69.5881 202.371 65.8781C195.828 63.5531 182.027 62.5931 175.423 64.0041ZM334.779 64.0221C313.964 67.7331 302.794 80.6501 301.296 102.744C299.912 123.149 309.092 140.179 324.602 145.982C332.595 148.973 355.437 148.973 363.43 145.982C382.579 138.818 391.743 113.617 384.115 89.1051C379.407 73.9791 366.439 65.1031 347.016 63.7141C342.891 63.4191 337.385 63.5581 334.779 64.0221ZM424.016 64.1041C404.838 67.4751 392.124 83.6161 392.04 104.698C392.008 112.812 394.362 124.834 396.993 129.99C403.001 141.768 416.866 148.981 433.516 148.992C451.334 149.004 462.729 145.159 468.523 137.179C472.182 132.142 476.016 121.804 476.016 116.977V113.961L466.874 114.248L457.733 114.536L456.508 119.369C454.131 128.749 448.448 132.989 437.187 133.787C428.894 134.373 423.004 132.843 418.568 128.947C413.33 124.349 411.516 118.436 411.516 105.964C411.516 96.1861 411.741 94.9521 414.519 89.5221C418.705 81.3381 423.957 78.6131 435.404 78.6861C440.812 78.7201 444.573 79.2731 446.628 80.3351C451.375 82.7901 455.917 88.5661 456.636 93.0621L457.272 97.0361H466.175C473.13 97.0361 475.204 96.7111 475.649 95.5501C476.572 93.1451 472.33 80.7701 469.015 76.1931C467.332 73.8701 464.507 71.0771 462.736 69.9861C454.302 64.7911 435.962 62.0041 424.016 64.1041ZM225.016 72.5361V80.0361H238.516H252.016V113.536V147.036H261.016H270.016V113.536V80.0361H284.016H298.016V72.5361V65.0361H261.516H225.016V72.5361ZM482.016 106.036V147.036H491.016H500.016L500.034 137.786L500.053 128.536L506.357 121.786C509.824 118.073 513.189 115.036 513.835 115.036C514.481 115.036 519.807 122.236 525.67 131.036L536.331 147.036H547.724H559.117L554.681 140.786C552.242 137.349 544.806 126.711 538.156 117.148L526.067 99.7601L537.741 87.1481C544.162 80.2111 551.446 72.3981 553.928 69.7861L558.441 65.0361H546.278H534.116L522.419 78.7861C508.028 95.7041 501.933 102.103 500.848 101.432C500.39 101.149 500.016 92.8451 500.016 82.9771V65.0361H491.016H482.016V106.036ZM48.5066 77.4191C47.2846 78.3131 46.6156 80.0221 46.6156 82.2521V85.7021L40.5656 83.8111C34.0536 81.7771 28.5906 82.0941 27.6436 84.5631C26.7006 87.0191 27.9856 88.8071 31.8436 90.4091L35.5156 91.9331L32.3306 91.9841C28.5416 92.0461 23.8416 93.7001 22.8366 95.3261C21.6796 97.1981 25.0336 100.015 29.2166 100.684C32.8926 101.272 32.9816 101.371 31.0486 102.726C28.3396 104.623 28.4836 106.641 31.4686 108.597C33.3716 109.844 35.5546 110.09 41.2186 109.694C45.2316 109.414 59.3156 108.703 72.5156 108.115C85.7156 107.527 97.9016 106.813 99.5966 106.528C103.48 105.874 118.098 98.8521 119.766 96.8391C120.818 95.5701 119.737 93.9631 112.967 86.7271L104.918 78.1241L100.501 81.4951C92.8616 87.3271 74.8036 92.5061 64.4126 91.8471L59.5156 91.5361L57.5156 85.4041C54.5496 76.3111 52.5026 74.4971 48.5066 77.4191ZM336.516 78.9081C331.556 80.2201 327.295 82.8361 325.101 85.9171C321.606 90.8261 319.687 100.445 320.34 109.781C321.03 119.628 323.33 125.349 328.384 129.786L332.086 133.036H344.073H356.061L360.411 129.026C365.949 123.921 367.516 118.741 367.516 105.536C367.516 91.7371 364.536 84.8731 356.843 80.9481C352.445 78.7041 341.458 77.6021 336.516 78.9081ZM432.764 166.406C423.416 169.883 417.045 178.753 417.026 188.318C417.002 199.864 425.75 209.273 437.834 210.699C458.606 213.151 471.975 189.031 458.543 173.338C452.858 166.697 440.742 163.439 432.764 166.406ZM286.016 188.036V210.036H289.016H292.016V201.536V193.036H300.782C307.351 193.036 310.42 192.576 313.032 191.201C319.567 187.76 321.936 178.697 317.99 172.226C314.969 167.27 310.894 166.036 297.548 166.036H286.016V188.036ZM351.016 188.036V210.036H354.016H357.016V203.118C357.016 193.285 357.188 193.036 363.989 193.036H369.748L375.132 201.286C380.141 208.961 380.777 209.558 384.266 209.846C386.329 210.017 388.016 209.918 388.016 209.627C388.016 209.336 385.753 205.631 382.987 201.394L377.958 193.691L380.936 190.613C387.114 184.23 388.051 177.862 383.722 171.673C380.546 167.133 376.521 166.036 363.048 166.036H351.016V188.036ZM435.11 172.284C426.964 174.989 421.896 184.164 424.077 192.262C426.997 203.107 441.665 208.04 450.939 201.294C454.162 198.949 458.016 191.552 458.016 187.71C458.016 177.637 445.127 168.957 435.11 172.284ZM292.016 179.536V187.036L299.266 187.022C308.689 187.005 310.794 186.366 312.535 182.999C314.393 179.406 312.923 174.77 309.419 173.174C308.046 172.548 303.568 172.036 299.469 172.036H292.016V179.536ZM357.016 179.536V187.036H366.061C374.332 187.036 375.317 186.826 377.561 184.581C380.798 181.345 380.66 178.527 377.093 174.959C374.317 172.183 373.739 172.036 365.593 172.036H357.016V179.536Z" fill="#009C86"/>
</svg>
